<svg xmlns="http://www.w3.org/2000/svg" xmlns:xlink="http://www.w3.org/1999/xlink" width="1920" height="1080" viewBox="0 0 1920 1080">
  <defs>
    <style>
      .cls-1 {
        clip-path: url(#clip-baner_1);
      }

      .cls-2, .cls-4 {
        fill: #d7fa66;
      }

      .cls-2 {
        opacity: 0.96;
      }

      .cls-3 {
        isolation: isolate;
      }
    </style>
    <clipPath id="clip-baner_1">
      <rect width="1920" height="1080"/>
    </clipPath>
  </defs>
  <g id="baner_1" data-name="baner – 1" class="cls-1">
    <rect width="1920" height="1080"/>
    <g id="Group_65" data-name="Group 65" transform="translate(0 26.17)">
      <path id="Path_29" data-name="Path 29" class="cls-2" d="M4.741,51.418,91.353,50.28,112.159,1.923,0,0Z" transform="translate(344.374 184.807) rotate(-161)"/>
      <path id="Path_35" data-name="Path 35" class="cls-2" d="M4.741,51.418,91.353,50.28,112.159,1.923,0,0Z" transform="translate(1706.374 927.127) rotate(-161)"/>
      <path id="Path_32" data-name="Path 32" class="cls-2" d="M4.741,51.418,91.353,50.28,112.159,1.923,0,0Z" transform="translate(1752.374 58.105) rotate(-161)"/>
      <path id="Path_30" data-name="Path 30" class="cls-2" d="M4.741,51.418,91.353,50.28,112.159,1.923,0,0Z" transform="translate(282.057 929.471) rotate(-161)"/>
      <path id="Path_36" data-name="Path 36" class="cls-2" d="M4.741,51.418,91.353,50.28,112.159,1.923,0,0Z" transform="translate(1644.058 1053.83) rotate(-161)"/>
      <path id="Path_33" data-name="Path 33" class="cls-2" d="M4.741,51.418,91.353,50.28,112.159,1.923,0,0Z" transform="translate(1690.058 184.807) rotate(-161)"/>
      <path id="Path_34" data-name="Path 34" class="cls-2" d="M4.741,51.418,91.353,50.28,112.159,1.923,0,0Z" transform="translate(1814.69 306.251) rotate(-161)"/>
      <path id="Path_37" data-name="Path 37" class="cls-2" d="M4.741,51.418,91.353,50.28,112.159,1.923,0,0Z" transform="translate(201.69 58.105) rotate(-161)"/>
      <path id="Path_38" data-name="Path 38" class="cls-2" d="M4.741,51.418,91.353,50.28,112.159,1.923,0,0Z" transform="translate(201.69 802.769) rotate(-161)"/>
    </g>
    <g id="logo-fav" transform="translate(173.514 -190.077)">
      <g id="fav" class="cls-3" transform="translate(651.404 542.077)">
        <path id="Rectangle_24" data-name="Rectangle 24" d="M0,0H172.491a16,16,0,0,1,16,16V187.509a0,0,0,0,1,0,0H16a16,16,0,0,1-16-16V0A0,0,0,0,1,0,0Z" transform="translate(40.837 94.245)"/>
        <g id="icon" transform="translate(70.284 129.308)">
          <path id="Path_28" data-name="Path 28" class="cls-4" d="M16.071,3.3,77.524,0l7.25,44.82L0,49.971Z" transform="matrix(0.946, -0.326, 0.326, 0.946, 0, 69.49)"/>
          <path id="Path_27" data-name="Path 27" class="cls-4" d="M4.261.339,68.773,0,83.589,37.487,0,40.58Z" transform="matrix(0.946, -0.326, 0.326, 0.946, 22.137, 27.214)"/>
        </g>
      </g>
    </g>
  </g>
</svg>
